# 3ds Max Wavefront OBJ Exporter v0.97b - (c)2007 guruware
# File Created: 22.09.2015 13:05:38

mtllib 3d-model.mtl

#
# object Group_001
#

v  -24.1654 19.0394 -14.9715
v  -24.1654 19.0394 14.9715
v  24.1653 19.0394 14.9715
v  24.1653 19.0394 -14.9715
v  24.1653 18.3071 -14.9715
v  -24.1654 18.3071 -14.9715
v  24.1653 18.3071 14.9715
v  -24.1654 18.3071 14.9715
# 8 vertices

vn 0.0000 1.0000 -0.0000
vn 0.0000 0.0000 -1.0000
vn 1.0000 0.0000 -0.0000
vn -1.0000 0.0000 -0.0000
vn 0.0000 0.0000 1.0000
vn 0.0000 -1.0000 -0.0000
# 6 vertex normals

vt 1.0448 1.5100 0.0000
vt 1.0448 0.6524 0.0000
vt 2.2491 0.6524 0.0000
vt 2.2491 1.5100 0.0000
vt -2.2491 0.6113 0.0000
vt -1.0448 0.6113 0.0000
vt -1.0448 0.6295 0.0000
vt -2.2491 0.6295 0.0000
vt 0.6524 0.6295 0.0000
vt 0.6524 0.6113 0.0000
vt 1.5100 0.6113 0.0000
vt 1.5100 0.6295 0.0000
vt -0.6524 0.6113 0.0000
vt -0.6524 0.6295 0.0000
vt -1.5100 0.6295 0.0000
vt -1.5100 0.6113 0.0000
vt 1.0448 0.6113 0.0000
vt 2.2491 0.6113 0.0000
vt 2.2491 0.6295 0.0000
vt 1.0448 0.6295 0.0000
vt -1.0448 0.6524 0.0000
vt -1.0448 1.5100 0.0000
vt -2.2491 1.5100 0.0000
vt -2.2491 0.6524 0.0000
# 24 texture coords

g Group_001
usemtl wire_143224087
s off
f 1/1/1 2/2/1 3/3/1 4/4/1 
f 5/5/2 6/6/2 1/7/2 4/8/2 
f 3/9/3 7/10/3 5/11/3 4/12/3 
f 8/13/4 2/14/4 1/15/4 6/16/4 
f 8/17/5 7/18/5 3/19/5 2/20/5 
f 8/21/6 6/22/6 5/23/6 7/24/6 
# 6 polygons

#
# object Layer0_001
#

v  -21.4614 18.0508 12.6191
v  -22.7008 18.0508 -13.6974
v  -22.7008 18.0508 13.6974
v  22.7008 18.0508 13.6974
v  21.4614 18.0508 12.6191
v  21.4614 18.0508 -12.6191
v  22.7008 18.0508 -13.6974
v  -21.4614 18.0508 -12.6191
v  22.7008 0.0000 13.6974
v  22.7008 0.0000 12.6191
v  22.7008 1.9872 12.6191
v  22.7008 0.9337 12.6191
v  22.7008 16.9973 12.6191
v  22.7008 16.9973 -12.6191
v  22.7008 0.0000 -13.6974
v  22.7008 1.9872 -12.6191
v  22.7008 0.9337 -12.6191
v  22.7008 0.0000 -12.6191
v  21.4614 0.0000 13.6974
v  21.4614 0.9337 13.6974
v  21.4614 1.9872 13.6974
v  21.4614 16.9973 13.6974
v  -21.4614 16.9973 13.6974
v  -21.4614 1.9872 13.6974
v  -21.4614 0.9337 13.6974
v  -22.7008 0.0000 13.6974
v  -21.4614 0.0000 13.6974
v  -22.7008 16.9973 12.6191
v  -22.7008 16.9973 -12.6191
v  -22.7008 1.9872 -12.6191
v  -22.7008 0.9337 -12.6191
v  -22.7008 0.0000 -12.6191
v  -22.7008 0.0000 -13.6974
v  -22.7008 0.9337 12.6191
v  -22.7008 1.9872 12.6191
v  -22.7008 0.0000 12.6191
v  -21.4614 0.9337 -13.6974
v  -21.4614 0.0000 -13.6974
v  -21.4614 1.9872 -13.6974
v  -21.4614 16.9973 -13.6974
v  21.4614 16.9973 -13.6974
v  21.4614 1.9872 -13.6974
v  21.4614 0.9337 -13.6974
v  21.4614 0.0000 -13.6974
v  -21.4614 1.9872 12.6191
v  -21.4614 16.9973 12.6191
v  21.4614 1.9872 -12.6191
v  21.4614 16.9973 -12.6191
v  -21.4614 16.9973 -12.6191
v  21.4614 1.9872 12.6191
v  21.4614 16.9973 12.6191
v  -21.4614 1.9872 -12.6191
v  21.4614 0.9337 12.6191
v  21.4614 0.9337 -12.6191
v  -21.4614 0.9337 -12.6191
v  -21.4614 0.9337 12.6191
v  -21.4614 0.0000 -12.6191
v  -21.4614 0.0000 12.6191
v  21.4614 0.0000 12.6191
v  21.4614 0.0000 -12.6191
# 60 vertices

vn 0.0000 1.0000 -0.0000
vn 1.0000 0.0000 -0.0000
vn 0.0000 0.0000 1.0000
vn -1.0000 0.0000 -0.0000
vn 0.0000 0.0000 -1.0000
vn 0.0000 -1.0000 -0.0000
# 6 vertex normals

vt 0.0000 0.0000 0.0000
# 1 texture coords

g Layer0_001
usemtl wire_087224198
s off
f 9/25/7 10/25/7 11/25/7 12/25/7 
f 13/25/7 9/25/7 12/25/7 14/25/7 
f 14/25/7 12/25/7 15/25/7 16/25/7 
f 16/25/7 15/25/7 10/25/7 9/25/7 
f 12/25/8 17/25/8 18/25/8 19/25/8 
f 19/25/8 18/25/8 20/25/8 
f 12/25/8 19/25/8 21/25/8 15/25/8 
f 15/25/8 21/25/8 22/25/8 23/25/8 
f 23/25/8 22/25/8 24/25/8 25/25/8 
f 23/25/8 25/25/8 26/25/8 
f 27/25/9 17/25/9 12/25/9 28/25/9 
f 29/25/9 28/25/9 12/25/9 30/25/9 
f 31/25/9 30/25/9 12/25/9 11/25/9 
f 32/25/9 31/25/9 11/25/9 33/25/9 
f 33/25/9 11/25/9 34/25/9 35/25/9 
f 36/25/10 34/25/10 11/25/10 10/25/10 
f 37/25/10 36/25/10 10/25/10 38/25/10 
f 39/25/10 38/25/10 10/25/10 40/25/10 
f 40/25/10 10/25/10 41/25/10 
f 38/25/10 39/25/10 42/25/10 43/25/10 
f 43/25/10 42/25/10 44/25/10 36/25/10 
f 36/25/10 44/25/10 34/25/10 
f 45/25/11 46/25/11 41/25/11 10/25/11 
f 47/25/11 45/25/11 10/25/11 48/25/11 
f 49/25/11 48/25/11 10/25/11 15/25/11 
f 50/25/11 49/25/11 15/25/11 51/25/11 
f 51/25/11 15/25/11 23/25/11 52/25/11 
f 47/25/11 50/25/11 51/25/11 45/25/11 
f 33/25/9 28/25/9 29/25/9 32/25/9 
f 24/25/8 19/25/8 20/25/8 25/25/8 
f 31/25/8 32/25/8 53/25/8 54/25/8 
f 55/25/10 56/25/10 49/25/10 50/25/10 
f 57/25/12 48/25/12 49/25/12 56/25/12 
f 19/25/11 58/25/11 59/25/11 21/25/11 
f 55/25/7 58/25/7 19/25/7 24/25/7 
f 55/25/9 24/25/9 22/25/9 56/25/9 
f 59/25/12 56/25/12 22/25/12 21/25/12 
f 29/25/10 30/25/10 59/25/10 58/25/10 
f 38/25/9 60/25/9 57/25/9 37/25/9 
f 38/25/7 43/25/7 53/25/7 60/25/7 
f 53/25/11 43/25/11 36/25/11 54/25/11 
f 36/25/12 37/25/12 57/25/12 54/25/12 
f 57/25/8 60/25/8 47/25/8 48/25/8 
f 53/25/7 32/25/7 29/25/7 58/25/7 
f 47/25/7 60/25/7 55/25/7 50/25/7 
f 61/25/10 58/25/10 55/25/10 62/25/10 
f 63/25/9 62/25/9 55/25/9 60/25/9 
f 53/25/8 64/25/8 63/25/8 60/25/8 
f 61/25/11 64/25/11 53/25/11 58/25/11 
f 55/25/9 62/25/9 25/25/9 24/25/9 
f 63/25/12 45/25/12 51/25/12 62/25/12 
f 61/25/12 62/25/12 25/25/12 20/25/12 
f 20/25/11 61/25/11 58/25/11 19/25/11 
f 28/25/10 29/25/10 58/25/10 61/25/10 
f 42/25/12 39/25/12 63/25/12 64/25/12 
f 33/25/12 64/25/12 61/25/12 28/25/12 
f 32/25/8 33/25/8 64/25/8 53/25/8 
f 40/25/12 41/25/12 46/25/12 65/25/12 
f 63/25/8 65/25/8 46/25/8 45/25/8 
f 40/25/9 65/25/9 63/25/9 39/25/9 
f 34/25/12 44/25/12 66/25/12 35/25/12 
f 64/25/11 66/25/11 44/25/11 42/25/11 
f 33/25/8 35/25/8 66/25/8 64/25/8 
f 17/25/12 27/25/12 67/25/12 18/25/12 
f 27/25/10 28/25/10 61/25/10 67/25/10 
f 18/25/11 67/25/11 61/25/11 20/25/11 
f 68/25/12 52/25/12 23/25/12 26/25/12 
f 62/25/9 68/25/9 26/25/9 25/25/9 
f 68/25/10 62/25/10 51/25/10 52/25/10 
f 31/25/12 54/25/12 59/25/12 30/25/12 
f 59/25/10 13/25/10 14/25/10 56/25/10 
f 59/25/11 54/25/11 9/25/11 13/25/11 
f 9/25/8 54/25/8 57/25/8 16/25/8 
f 57/25/9 56/25/9 14/25/9 16/25/9 
# 70 polygons - 4 triangles

